# xmcd
# 
# Track frame offsets:
#     150
#     13819
#     31338
#     45883
#     62579
#     79279
#     95087
#     108356
#     126925
#     145537
#     167299
#     185278
#     207275
# 
# Disc length: 2941
# 
# Revision: 0
# Processed by: cddbd v1.5.2PL0 Copyright (c) Steve Scherf et al.
# Submitted via: fre:ac v1.0.17
# 
DISCID=a20b7b0d
DTITLE=Reba McEntire - Keep on Loving You
DYEAR=2009
DGENRE=Country
TTITLE0=Strange
TTITLE1=Just When I Thought I'd Stopped Loving You
TTITLE2=I Keep On Lovin' You
TTITLE3=I Want A Cowboy
TTITLE4=Consider Me Gone
TTITLE5=But Why
TTITLE6=Pink Guitar
TTITLE7=She's Turning 50 Today
TTITLE8=Eight Crazy Hours
TTITLE9=Nothing To Lose
TTITLE10=Over You
TTITLE11=Maggie Creek Road
TTITLE12=I'll Have What She's Having
EXTD=
EXTT0=
EXTT1=
EXTT2=
EXTT3=
EXTT4=
EXTT5=
EXTT6=
EXTT7=
EXTT8=
EXTT9=
EXTT10=
EXTT11=
EXTT12=
PLAYORDER=
